<?xml version="1.0"?>
<svg xmlns="http://www.w3.org/2000/svg" viewBox="0 0 50 50">
    <path style="line-height:normal;text-indent:0;text-align:start;text-decoration-line:none;text-decoration-style:solid;text-decoration-color:#000;text-transform:none;block-progression:tb;isolation:auto;mix-blend-mode:normal" d="M 25 6 C 23.354545 6 22 7.3545455 22 9 L 22 10.365234 C 17.172775 11.551105 14.001117 15.612755 14.001953 21.0625 L 14.001953 28.863281 C 14.001953 31.035281 12.718469 33.494563 11.980469 34.726562 L 10.167969 37.445312 C 9.9629687 37.751312 9.9431875 38.147656 10.117188 38.472656 C 10.291188 38.797656 10.631 39 11 39 L 39 39 C 39.369 39 39.708813 38.797656 39.882812 38.472656 C 40.056813 38.147656 40.037031 37.752313 39.832031 37.445312 L 38.044922 34.767578 C 36.668922 32.473578 36 30.587 36 29 L 36 21.199219 C 36 15.68167 32.827303 11.569596 28 10.369141 L 28 9 C 28 7.3545455 26.645455 6 25 6 z M 25 8 C 25.554545 8 26 8.4454545 26 9 L 26 10.044922 C 25.671339 10.019952 25.339787 10 25 10 C 24.660213 10 24.328661 10.020256 24 10.044922 L 24 9 C 24 8.4454545 24.445455 8 25 8 z M 3.4804688 9.4765625 C 1.2493231 13.103089 -2.9605947e-16 17.418182 0 22 C 0 26.581818 1.2493231 30.896911 3.4804688 34.523438 L 5.1855469 33.476562 C 3.1506926 30.169089 2 26.218182 2 22 C 2 17.781818 3.1506926 13.830911 5.1855469 10.523438 L 3.4804688 9.4765625 z M 46.519531 9.4765625 L 44.814453 10.523438 C 46.849307 13.83091 48 17.781818 48 22 C 48 26.218182 46.849307 30.169089 44.814453 33.476562 L 46.519531 34.523438 C 48.750677 30.896911 50 26.581818 50 22 C 50 17.418182 48.750677 13.103089 46.519531 9.4765625 z M 7.8164062 12.140625 C 5.9949036 15.081921 5 18.353594 5 22 C 5 25.672173 6.1278502 29.047117 7.8085938 31.847656 L 9.5253906 30.818359 C 8.0061341 28.286898 7 25.261827 7 22 C 7 18.712406 7.8710809 15.852063 9.5175781 13.193359 L 7.8164062 12.140625 z M 42.183594 12.140625 L 40.482422 13.193359 C 42.128919 15.852063 43 18.712406 43 22 C 43 25.261827 41.993866 28.286898 40.474609 30.818359 L 42.191406 31.847656 C 43.87215 29.047117 45 25.672173 45 22 C 45 18.353594 44.005097 15.081921 42.183594 12.140625 z M 20.423828 41 C 21.197828 42.763 22.955 44 25 44 C 27.045 44 28.802172 42.763 29.576172 41 L 20.423828 41 z" font-weight="400" font-family="sans-serif" white-space="normal" overflow="visible"/>
</svg>
