<?xml version="1.0" encoding="utf-8"?>
<!-- Svg Vector Icons : http://www.onlinewebfonts.com/icon -->
<!DOCTYPE svg PUBLIC "-//W3C//DTD SVG 1.1//EN" "http://www.w3.org/Graphics/SVG/1.1/DTD/svg11.dtd">
<svg version="1.1" xmlns="http://www.w3.org/2000/svg" xmlns:xlink="http://www.w3.org/1999/xlink" x="0px" y="0px" viewBox="0 0 1000 1000" enable-background="new 0 0 1000 1000" xml:space="preserve">
<metadata> Svg Vector Icons : http://www.onlinewebfonts.com/icon </metadata>
<g><g transform="matrix(1 0 0 -1 0 1920)"><path d="M500,930c-44.4,0-87.7,5.9-130.1,17.6c-42.3,11.7-81.4,28.1-117.2,49.2s-68.8,46.8-99,77c-30.2,30.2-55.9,63.2-77,99c-21.1,35.8-37.5,74.9-49.2,117.2C15.9,1332.3,10,1375.6,10,1420s5.9,87.7,17.6,130.1c11.7,42.3,28.1,81.4,49.2,117.2c21.1,35.8,46.8,68.8,77,99s63.2,55.9,99,77c35.8,21.1,74.9,37.5,117.2,49.2c42.3,11.7,85.7,17.6,130.1,17.6c44.4,0,87.7-5.9,130.1-17.6c42.3-11.7,81.4-28.1,117.2-49.2c35.8-21.1,68.8-46.8,99-77s55.9-63.2,77-99s37.5-74.9,49.2-117.2S990,1464.4,990,1420s-5.9-87.7-17.6-130.1c-11.7-42.3-28.1-81.4-49.2-117.2c-21.1-35.8-46.8-68.8-77-99c-30.2-30.2-63.2-55.9-99-77c-35.8-21.1-74.9-37.5-117.2-49.2C587.7,935.9,544.4,930,500,930z M500,1052.5c28.6,0,56.6,3.2,84.1,9.6c27.5,6.4,53.3,15.7,77.4,27.8s46.8,26.5,68.2,43.3c21.4,16.7,40.4,35.8,57.2,57.2c16.7,21.4,31.2,44.1,43.3,68.2c12.1,24.1,21.4,49.9,27.8,77.4c6.4,27.5,9.6,55.5,9.6,84.1c0,33.2-4.4,65.7-13.3,97.4c-8.8,31.7-21.2,61-37,88c-15.8,26.9-35,51.7-57.6,74.3c-22.6,22.6-47.4,41.8-74.3,57.6s-56.3,28.1-88,37c-31.7,8.8-64.2,13.3-97.4,13.3s-65.7-4.4-97.4-13.3c-31.7-8.8-61-21.2-88-37c-26.9-15.8-51.7-35-74.3-57.6c-22.6-22.6-41.8-47.4-57.6-74.3c-15.8-27-28.1-56.3-37-88c-8.8-31.7-13.3-64.2-13.3-97.4c0-20.1,1.6-40,4.9-59.6c3.3-19.6,7.9-38.5,13.9-56.6c6-18.1,13.4-35.7,22.3-52.7c8.8-17,18.8-33.1,29.8-48.2c11-15.1,23.3-29.4,36.8-42.9c13.5-13.5,27.8-25.7,42.9-36.8c15.1-11,31.2-21,48.2-29.8c17-8.8,34.6-16.3,52.7-22.3c18.1-6,37-10.6,56.6-13.9C460,1054.1,479.9,1052.5,500,1052.5z M287.7,1197.5c-2.7-1.1-5-1.6-6.9-1.6c-3.3,0-4.9,1.6-4.9,4.9c0,1.9,0.5,4.2,1.6,6.9l127.4,280.5c1.1,2.4,2.7,5,4.7,7.8c2,2.7,4.3,5.3,6.7,7.8c2.4,2.5,5,4.7,7.8,6.7c2.7,2,5.3,3.6,7.8,4.7l280.5,127.4c2.7,1.1,5,1.6,6.9,1.6c3.5,0,5.3-1.6,5.3-4.9c0-1.9-0.7-4.2-2-6.9l-127.4-280.5c-2.5-4.9-6.3-10-11.6-15.3c-5.3-5.3-10.4-9.2-15.3-11.6L287.7,1197.5z M465.9,1385.9c9.4-9.4,20.8-14.1,34.1-14.1s24.7,4.7,34.1,14.1c9.4,9.4,14.1,20.8,14.1,34.1s-4.7,24.7-14.1,34.1s-20.8,14.1-34.1,14.1s-24.6-4.8-33.9-14.3c-9.5-9.3-14.3-20.6-14.3-33.9S456.5,1395.3,465.9,1385.9z"/></g></g>
</svg>